<svg width="24" height="24" viewBox="0 0 24 24" fill="none" xmlns="http://www.w3.org/2000/svg">
<path d="M9 11H15M12 8V14M9 9C9 9 8 8 7 9C6 10 7 11 7 11M15 9C15 9 16 8 17 9C18 10 17 11 17 11M7 13C7 13 6 14 7 15C8 16 9 15 9 15M17 13C17 13 18 14 17 15C16 16 15 15 15 15" stroke="#FF5252" stroke-width="2" stroke-linecap="round" stroke-linejoin="round"/>
<path d="M12 2V6M12 18V22M4 12H2M22 12H20M5.5 5.5L7 7M18.5 18.5L17 17M5.5 18.5L7 17M18.5 5.5L17 7" stroke="#FF5252" stroke-width="2" stroke-linecap="round" stroke-linejoin="round"/>
</svg>
