<svg width="24" height="24" viewBox="0 0 24 24" fill="none" xmlns="http://www.w3.org/2000/svg">
<path d="M12 15C13.6569 15 15 13.6569 15 12C15 10.3431 13.6569 9 12 9C10.3431 9 9 10.3431 9 12C9 13.6569 10.3431 15 12 15Z" stroke="#FF7D45" stroke-width="2"/>
<path d="M19.4 15C19.4 15 20.5 13.5 20.5 12C20.5 10.5 19.4 9 19.4 9M4.6 15C4.6 15 3.5 13.5 3.5 12C3.5 10.5 4.6 9 4.6 9M15 4.6C15 4.6 13.5 3.5 12 3.5C10.5 3.5 9 4.6 9 4.6M15 19.4C15 19.4 13.5 20.5 12 20.5C10.5 20.5 9 19.4 9 19.4M19.4 15L17.7 17.7M4.6 15L6.3 17.7M19.4 9L17.7 6.3M4.6 9L6.3 6.3" stroke="#FF7D45" stroke-width="2" stroke-linecap="round" stroke-linejoin="round"/>
</svg>
