<svg width="24" height="24" viewBox="0 0 24 24" fill="none" xmlns="http://www.w3.org/2000/svg">
<path d="M14 12L16 10M10 8L8 10M16 14L14 16M8 6L10 4M12 10L14 8M18 14L16 16M6 10L4 12M10 14L8 16" stroke="#FF7D45" stroke-width="2" stroke-linecap="round" stroke-linejoin="round"/>
<path d="M12 2L14 4L12 6L10 4L12 2Z" stroke="#FF7D45" stroke-width="2"/>
<path d="M22 14L20 16L18 14L20 12L22 14Z" stroke="#FF7D45" stroke-width="2"/>
<path d="M6 10L4 12L2 10L4 8L6 10Z" stroke="#FF7D45" stroke-width="2"/>
</svg>
