<svg width="24" height="24" viewBox="0 0 24 24" fill="none" xmlns="http://www.w3.org/2000/svg">
<path d="M9 11L12 14L22 4" stroke="#FF7D45" stroke-width="2" stroke-linecap="round" stroke-linejoin="round"/>
<path d="M21 12C21 13.3261 20.4732 14.5979 19.5355 15.5355C18.5979 16.4732 17.3261 17 16 17C14.6739 17 13.4021 16.4732 12.4645 15.5355C11.5268 14.5979 11 13.3261 11 12C11 10.6739 11.5268 9.40215 12.4645 8.46447C13.4021 7.52678 14.6739 7 16 7C17.3261 7 18.5979 7.52678 19.5355 8.46447C20.4732 9.40215 21 10.6739 21 12V12Z" stroke="#FF7D45" stroke-width="2"/>
<path d="M3 12C3 13.3261 3.52678 14.5979 4.46447 15.5355C5.40215 16.4732 6.67392 17 8 17C9.32608 17 10.5979 16.4732 11.5355 15.5355C12.4732 14.5979 13 13.3261 13 12C13 10.6739 12.4732 9.40215 11.5355 8.46447C10.5979 7.52678 9.32608 7 8 7C6.67392 7 5.40215 7.52678 4.46447 8.46447C3.52678 9.40215 3 10.6739 3 12V12Z" stroke="#FF7D45" stroke-width="2"/>
</svg>
