<svg width="24" height="24" viewBox="0 0 24 24" fill="none" xmlns="http://www.w3.org/2000/svg">
<path d="M16 3C16 4.10457 15.1046 5 14 5C12.8954 5 12 4.10457 12 3C12 1.89543 12.8954 1 14 1C15.1046 1 16 1.89543 16 3Z" stroke="#FF7D45" stroke-width="2"/>
<path d="M2 12L4 14L6 12L4 10L2 12Z" stroke="#FF7D45" stroke-width="2"/>
<path d="M18 6L20 8L22 6L20 4L18 6Z" stroke="#FF7D45" stroke-width="2"/>
<path d="M6 18L8 20L10 18L8 16L6 18Z" stroke="#FF7D45" stroke-width="2"/>
<path d="M12 12L14 14L16 12L14 10L12 12Z" stroke="#FF7D45" stroke-width="2"/>
</svg>
