<svg width="24" height="24" viewBox="0 0 24 24" fill="none" xmlns="http://www.w3.org/2000/svg">
<path d="M12 2C8.13 2 5 3.57 5 5.5C5 7.43 8.13 9 12 9C15.87 9 19 7.43 19 5.5C19 3.57 15.87 2 12 2Z" stroke="#FF7D45" stroke-width="2"/>
<path d="M5 5.5V18.5C5 20.43 8.13 22 12 22C15.87 22 19 20.43 19 18.5V5.5" stroke="#FF7D45" stroke-width="2"/>
<path d="M19 9.5C19 11.43 15.87 13 12 13C8.13 13 5 11.43 5 9.5" stroke="#FF7D45" stroke-width="2"/>
<path d="M19 13.5C19 15.43 15.87 17 12 17C8.13 17 5 15.43 5 13.5" stroke="#FF7D45" stroke-width="2"/>
</svg>
