<svg width="24" height="24" viewBox="0 0 24 24" fill="none" xmlns="http://www.w3.org/2000/svg">
<path d="M10 13C10.4295 13.5741 10.9774 14.0491 11.6066 14.3929C12.2357 14.7367 12.9315 14.9411 13.6406 14.9913C14.3497 15.0415 15.0533 14.9358 15.6894 14.6816C16.3255 14.4274 16.8757 14.0318 17.2929 13.5258C17.7101 13.0198 17.9822 12.4209 18.0865 11.782C18.1908 11.1431 18.1243 10.4835 17.8918 9.86313C17.6593 9.24271 17.2687 8.67836 16.7507 8.22017C16.2327 7.76198 15.6017 7.42146 14.9118 7.22563L13.7878 6.89651" stroke="#FF7D45" stroke-width="2" stroke-linecap="round" stroke-linejoin="round"/>
<path d="M7 11C6.57051 10.4259 6.02264 9.95088 5.39342 9.60707C4.7642 9.26326 4.06839 9.05888 3.35925 9.00869C2.6501 8.9585 1.94652 9.06418 1.3104 9.31836C0.674285 9.57254 0.124146 9.96818 0.707107 10.4742C0.289854 10.9802 0.0177562 11.5791 0.0864587 12.218C0.155161 12.8569 0.221734 13.5165 0.454234 14.1369C0.686734 14.7573 1.07733 15.3216 1.59532 15.7798C2.11331 16.238 2.74428 16.5785 3.43424 16.7744L4.55821 17.1035" stroke="#FF7D45" stroke-width="2" stroke-linecap="round" stroke-linejoin="round"/>
</svg>
