<svg width="24" height="24" viewBox="0 0 24 24" fill="none" xmlns="http://www.w3.org/2000/svg">
  <path d="M12 2C8.13 2 5 5.13 5 9C5 11.38 6.19 13.47 8 14.74V17C8 17.55 8.45 18 9 18H15C15.55 18 16 17.55 16 17V14.74C17.81 13.47 19 11.38 19 9C19 5.13 15.87 2 12 2Z" fill="#FF7D45"/>
  <path d="M9 21C9 21.83 9.67 22.5 10.5 22.5H13.5C14.33 22.5 15 21.83 15 21V20H9V21Z" fill="#FF7D45"/>
  <circle cx="12" cy="8" r="1.5" fill="white"/>
  <path d="M12 5V6" stroke="white" stroke-width="1" stroke-linecap="round"/>
  <path d="M12 10V11" stroke="white" stroke-width="1" stroke-linecap="round"/>
  <path d="M9.5 7.5L10.5 8.5" stroke="white" stroke-width="1" stroke-linecap="round"/>
  <path d="M14.5 7.5L13.5 8.5" stroke="white" stroke-width="1" stroke-linecap="round"/>
</svg>
