<svg width="24" height="24" viewBox="0 0 24 24" fill="none" xmlns="http://www.w3.org/2000/svg">
  <path d="M14.7 6.3C14.7 4.5 13.2 3 11.4 3C9.6 3 8.1 4.5 8.1 6.3C8.1 8.1 9.6 9.6 11.4 9.6C13.2 9.6 14.7 8.1 14.7 6.3Z" fill="#FF7D45"/>
  <path d="M6.3 12L8.1 10.2L10.8 12.9L9 14.7L6.3 12Z" fill="#FF7D45"/>
  <path d="M12.9 10.8L14.7 9L17.4 11.7L15.6 13.5L12.9 10.8Z" fill="#FF7D45"/>
  <path d="M10.8 12.9L12.6 11.1L15.3 13.8L13.5 15.6L10.8 12.9Z" fill="#FF7D45"/>
  <path d="M6.3 14.7L8.1 12.9L10.8 15.6L9 17.4L6.3 14.7Z" fill="#FF7D45"/>
</svg>
