<svg width="64" height="64" viewBox="0 0 64 64" fill="none" xmlns="http://www.w3.org/2000/svg">
  <path d="M32 8C18.064 8 6.8 19.264 6.8 33.2C6.8 43.544 13.528 52.408 22.792 55.816C23.768 55.992 24.12 55.384 24.12 54.856V50.2C17.416 51.592 16.36 47.128 16.36 47.128C15.512 44.944 14.344 44.344 14.344 44.344C12.616 42.904 14.488 42.928 14.488 42.928C16.424 43.064 17.32 44.896 17.32 44.896C18.992 47.8 21.712 46.968 24.2 46.408C24.376 45.208 24.888 44.376 25.44 43.8C19.768 43.208 13.832 40.984 13.832 29.224C13.832 26.776 14.704 24.856 16.04 23.368C15.816 22.776 14.84 20.536 16.216 17.08C16.216 17.08 17.992 16.48 24.12 21.688C26.04 21.16 28.04 20.896 30.04 20.896C32.04 20.896 34.04 21.16 35.96 21.688C42.088 16.472 43.864 17.08 43.864 17.08C45.24 20.536 44.264 22.776 44.04 23.368C45.376 24.856 46.248 26.768 46.248 29.224C46.248 41.008 40.304 43.224 34.616 43.8C35.32 44.408 35.96 45.592 35.96 47.704V54.856C35.96 55.384 36.312 56 37.288 55.816C46.552 52.4 53.28 43.536 53.28 33.2C53.28 19.264 41.936 8 28 8H32Z" fill="#FF7D45"/>
</svg>
