<svg width="64" height="64" viewBox="0 0 64 64" fill="none" xmlns="http://www.w3.org/2000/svg">
  <circle cx="32" cy="32" r="28" stroke="#FF7D45" stroke-width="2" fill="#FFE6D9"/>
  <circle cx="32" cy="32" r="20" stroke="#FF7D45" stroke-width="1" fill="none"/>
  <path d="M4 32C4 18.745 14.745 8 28 8C41.255 8 52 18.745 52 32C52 45.255 41.255 56 28 56C14.745 56 4 45.255 4 32Z" stroke="#FF7D45" stroke-width="2"/>
  <path d="M32 4C32 4 44 16 44 32C44 48 32 60 32 60" stroke="#FF7D45" stroke-width="2"/>
  <path d="M32 4C32 4 20 16 20 32C20 48 32 60 32 60" stroke="#FF7D45" stroke-width="2"/>
  <path d="M4 32C4 32 16 20 32 20C48 20 60 32 60 32" stroke="#FF7D45" stroke-width="2"/>
  <path d="M4 32C4 32 16 44 32 44C48 44 60 32 60 32" stroke="#FF7D45" stroke-width="2"/>
  <circle cx="32" cy="32" r="4" fill="#FF7D45"/>
</svg>
