<svg width="48" height="48" viewBox="0 0 24 24" fill="none" xmlns="http://www.w3.org/2000/svg">
  <path d="M16 4C18.2091 4 20 5.79086 20 8C20 10.2091 18.2091 12 16 12C13.7909 12 12 10.2091 12 8C12 5.79086 13.7909 4 16 4Z" fill="#FF7D45"/>
  <path d="M8 6C9.65685 6 11 7.34315 11 9C11 10.6569 9.65685 12 8 12C6.34315 12 5 10.6569 5 9C5 7.34315 6.34315 6 8 6Z" fill="#4A6FA1"/>
  <path d="M22 20V18C22 15.7909 20.2091 14 18 14H14C11.7909 14 10 15.7909 10 18V20H22Z" fill="#FF7D45"/>
  <path d="M11 20V19C11 17.3431 9.65685 16 8 16H4C2.34315 16 1 17.3431 1 19V20H11Z" fill="#4A6FA1"/>
</svg>
