<svg width="24" height="24" viewBox="0 0 24 24" fill="none" xmlns="http://www.w3.org/2000/svg">
<path d="M16 4H18C18.5304 4 19.0391 4.21071 19.4142 4.58579C19.7893 4.96086 20 5.46957 20 6V20C20 20.5304 19.7893 21.0391 19.4142 21.4142C19.0391 21.7893 18.5304 22 18 22H6C5.46957 22 4.96086 21.7893 4.58579 21.4142C4.21071 21.0391 4 20.5304 4 20V6C4 5.46957 4.21071 4.96086 4.58579 4.58579C4.96086 4.21071 5.46957 5 6 5H8" stroke="#FF7D45" stroke-width="2" stroke-linecap="round" stroke-linejoin="round"/>
<path d="M8 2H16V6H8V2Z" stroke="#FF7D45" stroke-width="2" stroke-linecap="round" stroke-linejoin="round"/>
<path d="M9 11H15M9 15H15" stroke="#FF7D45" stroke-width="2" stroke-linecap="round"/>
</svg>
