<svg width="24" height="24" viewBox="0 0 24 24" fill="none" xmlns="http://www.w3.org/2000/svg">
<path d="M14.7 6.3C15.1 6.3 15.4 6 15.4 5.6V4.4C15.4 4 15.1 3.7 14.7 3.7C14.3 3.7 14 4 14 4.4V5.6C14 6 14.3 6.3 14.7 6.3Z" stroke="#FF7D45" stroke-width="2"/>
<path d="M10 12L14 8M18 10L14 14" stroke="#FF7D45" stroke-width="2"/>
<path d="M12 2L14 4L12 6L10 4L12 2Z" stroke="#FF7D45" stroke-width="2"/>
<path d="M22 14L20 16L18 14L20 12L22 14Z" stroke="#FF7D45" stroke-width="2"/>
<path d="M6 10L4 12L2 10L4 8L6 10Z" stroke="#FF7D45" stroke-width="2"/>
</svg>
