<svg width="24" height="24" viewBox="0 0 24 24" fill="none" xmlns="http://www.w3.org/2000/svg">
<path d="M9.09 9.09L12 6L14.91 9.09L18 12L14.91 14.91L12 18L9.09 14.91L6 12L9.09 9.09Z" stroke="#FF7D45" stroke-width="2"/>
<path d="M21 3L19 5L21 7L23 5L21 3Z" stroke="#FF7D45" stroke-width="2"/>
<path d="M3 21L5 19L7 21L5 23L3 21Z" stroke="#FF7D45" stroke-width="2"/>
<path d="M21 21L19 19L21 17L23 19L21 21Z" stroke="#FF7D45" stroke-width="2"/>
<path d="M3 3L5 5L7 3L5 1L3 3Z" stroke="#FF7D45" stroke-width="2"/>
</svg>
